# ProBuilder 5.0.6
# https://unity3d.com/unity/features/worldbuilding/probuilder
# 2022-07-16 10:31:03 PM

mtllib ./Arch.mtl
o Arch

g Arch
v -1.958789 -1.092399 1
v -1.699801 -1.0924 1
v -1.958789 -1.092399 -1
v -1.699801 -1.0924 -1
v -1.961259 -0.8963642 -1
v -1.961259 -0.896365 1
v -1.691615 -0.9257704 -1
v -1.691615 -0.9257704 1
v -1.962501 -0.7022179 -1
v -1.962501 -0.7022188 1
v -1.667135 -0.760746 -1
v -1.667135 -0.760746 1
v -1.964414 -0.5118293 -1
v -1.964414 -0.5118301 1
v -1.626599 -0.5989156 -1
v -1.626599 -0.5989156 1
v -1.965578 -0.327032 -1
v -1.965578 -0.3270319 1
v -1.570396 -0.4418377 -1
v -1.570396 -0.4418377 1
v -1.9701 -0.1496046 -1
v -1.9701 -0.1496055 1
v -1.499067 -0.2910251 -1
v -1.499067 -0.2910251 1
v -1.975547 0.5187418 -1
v -1.975547 0.518742 1
v -1.413299 -0.1479301 -1
v -1.413299 -0.1479301 1
v -1.982217 1.087094 -1.000001
v -1.982217 0.9263883 0.9999998
v -1.313918 -0.01393104 -1
v -1.313918 -0.01393104 1
v -1.414014 1.089272 -1
v -1.414014 0.9285674 1
v -1.201882 0.1096821 -1
v -1.201882 0.1096821 1
v -1.268587 1.088125 -1
v -1.268587 0.9274204 1
v -1.078269 0.2217183 -1
v -1.078269 0.2217183 1
v -1.110941 1.087108 -1
v -1.110941 0.926403 1
v -0.94427 0.3210988 -1
v -0.94427 0.3210988 1
v -0.9425944 1.088406 -1
v -0.9425944 0.9277005 1
v -0.8011751 0.4068666 -1
v -0.8011751 0.4068666 1
v -0.7651671 1.087675 -1
v -0.7651671 0.92697 1
v -0.6503624 0.4781957 -1
v -0.6503624 0.4781957 1
v -0.5803698 1.089275 -1
v -0.5803698 0.9285703 1
v -0.4932845 0.534399 -1
v -0.4932845 0.534399 1
v -0.3899812 1.08886 -1
v -0.3899812 0.9281552 1
v -0.3314542 0.5749354 -1
v -0.3314542 0.5749354 1
v -0.195835 1.08861 -1
v -0.195835 0.9279046 1
v -0.1664296 0.5994146 -1
v -0.1664296 0.5994146 1
v 0.0001994371 1.088526 -1
v 0.0001994371 0.9278207 1
v 0.0001995564 0.6076005 -1
v 0.0001995564 0.6076005 1
v 0.1962339 1.086434 -1
v 0.1962339 0.9257293 1
v 0.1668285 0.5994146 -1
v 0.1668285 0.5994146 1
v 0.39038 1.086685 -1
v 0.39038 0.9259799 1
v 0.331853 0.5749354 -1
v 0.331853 0.5749354 1
v 0.5807687 1.089275 -1
v 0.5807687 0.9285703 1
v 0.4936835 0.534399 -1
v 0.4936835 0.534399 1
v 0.765566 1.089851 -1
v 0.765566 0.9291456 1
v 0.6507612 0.4781957 -1
v 0.6507612 0.4781957 1
v 0.9429933 1.090581 -1
v 0.9429933 0.9298759 1
v 0.8015736 0.4068668 -1
v 0.8015736 0.4068668 1
v 1.11134 1.091455 -1
v 1.11134 0.9307494 1
v 0.9446689 0.3210988 -1
v 0.9446689 0.3210988 1
v 1.268986 1.0924 -1
v 1.268986 0.9316945 1
v 1.078668 0.2217183 -1
v 1.078668 0.2217183 1
v 1.414414 1.091362 -1
v 1.414414 0.9306574 1
v 1.202281 0.1096821 -1
v 1.202281 0.1096821 1
v 1.982217 1.087092 -1
v 1.982217 0.9263871 1
v 1.314317 -0.01393104 -1
v 1.314317 -0.01393104 1
v 1.966842 0.01874089 -1
v 1.966842 0.01874089 1
v 1.413698 -0.1479302 -1
v 1.413698 -0.1479302 1
v 1.964022 -0.1496059 -1
v 1.964022 -0.1496059 1
v 1.499466 -0.2910249 -1
v 1.499466 -0.2910249 1
v 1.969497 -0.3270326 -1
v 1.969497 -0.3270326 1
v 1.570795 -0.4418376 -1
v 1.570795 -0.4418376 1
v 1.964874 -0.5118301 -1
v 1.964874 -0.5118301 1
v 1.626998 -0.5989155 -1
v 1.626998 -0.5989155 1
v 1.96518 -0.7022189 -1
v 1.96518 -0.7022189 1
v 1.667534 -0.760746 -1
v 1.667534 -0.760746 1
v 1.962627 -0.8963653 -1
v 1.962627 -0.8963653 1
v 1.692013 -0.9257705 -1
v 1.692013 -0.9257705 1
v 1.958831 -1.0924 -1
v 1.958831 -1.0924 1
v 1.700199 -1.0924 -1
v 1.700199 -1.0924 1

vt -1.958789 1.000001
vt -1.6998 1
vt -1.958789 -0.9999996
vt -1.6998 -0.9999995
vt -1 -1.067636
vt -1 -0.8715857
vt 1 -1.067637
vt 1 -0.8715866
vt 1 -1.007659
vt 1 -1.174489
vt -1 -1.007659
vt -1 -1.174489
vt -1 -0.8837954
vt -1 -0.6896452
vt 1 -0.8837962
vt 1 -0.689646
vt 1 -0.9971325
vt 1 -1.163963
vt -1 -0.9971325
vt -1 -1.163963
vt -1 -0.682465
vt -1 -0.4920667
vt 1 -0.6824659
vt 1 -0.4920676
vt 1 -0.9761971
vt 1 -1.143027
vt -1 -0.9761971
vt -1 -1.143027
vt -1 -0.4994527
vt -1 -0.3146518
vt 1 -0.4994535
vt 1 -0.3146516
vt 1 -0.9450608
vt 1 -1.111891
vt -1 -0.9450608
vt -1 -1.111891
vt -1 -0.2768455
vt -1 -0.09936048
vt 1 -0.2768453
vt 1 -0.09936132
vt 1 -0.9040163
vt 1 -1.070846
vt -1 -0.9040163
vt -1 -1.070846
vt -1 -0.1335421
vt -1 0.5348266
vt 1 -0.1335429
vt 1 0.5348267
vt 1 -0.8534648
vt 1 -1.020295
vt -1 -0.8534648
vt -1 -1.020295
vt -1 0.5418873
vt -1.000001 1.110278
vt 1 0.5418874
vt 0.9999998 0.9495839
vt 1 -0.79389
vt 1 -0.9607199
vt -1 -0.79389
vt -1 -0.9607199
vt 1.978034 -1.084466
vt 1.409826 -1.084465
vt 1.97865 0.9219807
vt 1.410442 0.921981
vt 1 -0.7258654
vt 1 -0.8926957
vt -1 -0.7258654
vt -1 -0.8926957
vt 1.422561 -1.083133
vt 1.27713 -1.083133
vt 1.421293 0.9233123
vt 1.275862 0.9233123
vt -0.650048 -1
vt -0.8168781 -1
vt -0.650048 1
vt -0.8168781 1
vt 1.275582 -1.083281
vt 1.117933 -1.083281
vt 1.274545 0.923165
vt 1.116896 0.923165
vt -0.5671666 -1
vt -0.7339966 -1
vt -0.5671666 1
vt -0.7339966 1
vt 1.10253 -1.084539
vt 0.9341781 -1.084539
vt 1.103768 0.9219065
vt 0.9354166 0.9219065
vt -0.4780198 -1
vt -0.6448498 -1
vt -0.4780198 1
vt -0.6448498 1
vt 0.9470676 -1.08365
vt 0.7696388 -1.08365
vt 0.946406 0.9227958
vt 0.7689772 0.9227958
vt -0.3834656 -1
vt -0.5502957 -1
vt -0.3834656 1
vt -0.5502957 1
vt 0.75572 -1.084428
vt 0.5709158 -1.084428
vt 0.7571115 0.9220173
vt 0.5723073 0.9220173
vt -0.2844156 -1
vt -0.4512458 -1
vt -0.2844156 1
vt -0.4512458 1
vt 0.5827433 -1.08393
vt 0.3923542 -1.08393
vt 0.5823929 0.9225157
vt 0.3920038 0.9225157
vt -0.1818229 -1
vt -0.3486529 -1
vt -0.1818229 1
vt -0.3486529 1
vt 0.3913862 -1.083959
vt 0.1972399 -1.083959
vt 0.3911788 0.9224877
vt 0.1970325 0.9224877
vt -0.07667563 -1
vt -0.2435059 -1
vt -0.07667563 1
vt -0.2435059 1
vt 0.196301 -1.083972
vt 0.0002665662 -1.083972
vt 0.1962322 0.9224741
vt 0.0001977676 0.9224741
vt 0.03001248 -1
vt -0.1368177 -1
vt 0.03001248 1
vt -0.1368177 1
vt 0.01141293 -1.083963
vt -0.1846327 -1.083963
vt 0.009698533 0.9224827
vt -0.1863471 0.9224827
vt 0.137216 -1
vt -0.02961389 -1
vt 0.137216 1
vt -0.02961389 1
vt -0.1976359 -1.083784
vt -0.3917823 -1.083784
vt -0.1974285 0.922662
vt -0.3915748 0.922662
vt 0.2439004 -1
vt 0.07707018 -1
vt 0.2439004 1
vt 0.07707018 1
vt -0.4051279 -1.083384
vt -0.5955342 -1.083384
vt -0.4029416 0.9230611
vt -0.5933478 0.9230611
vt 0.3490401 -1
vt 0.1822099 -1
vt 0.3490401 1
vt 0.1822099 1
vt -0.584157 -1.083887
vt -0.7689552 -1.083887
vt -0.5836567 0.9225596
vt -0.7684548 0.9225596
vt 0.451621 -1
vt 0.284791 -1
vt 0.451621 1
vt 0.284791 1
vt -0.7700452 -1.083825
vt -0.947474 -1.083825
vt -0.7693838 0.9226217
vt -0.9468126 0.9226217
vt 0.5506563 -1
vt 0.3838265 -1
vt 0.5506563 1
vt 0.3838265 1
vt -0.9486396 -1.083742
vt -1.116988 -1.083742
vt -0.9478057 0.9227034
vt -1.116154 0.9227034
vt 0.6451918 -1
vt 0.4783614 -1
vt 0.6451918 1
vt 0.4783614 1
vt -1.117863 -1.08367
vt -1.275512 -1.08367
vt -1.116899 0.9227759
vt -1.274548 0.9227759
vt 0.7343169 -1
vt 0.5674869 -1
vt 0.7343169 1
vt 0.5674869 1
vt -1.261163 -1.085003
vt -1.406595 -1.085003
vt -1.262309 0.9214429
vt -1.407741 0.9214429
vt 0.8171743 -1
vt 0.6503441 -1
vt 0.8171743 1
vt 0.6503441 1
vt -1.406166 -1.085047
vt -1.973985 -1.085047
vt -1.407375 0.9213993
vt -1.975194 0.9213993
vt -1 -0.7261328
vt 1 -0.7261328
vt 0.9977071 1.11552
vt 0.9977249 0.04705835
vt -1.002292 0.9547985
vt -1.002274 0.04702507
vt -1 -0.7941272
vt 1 -0.7941272
vt 1 0.05168066
vt 1 -0.1166897
vt -1 0.05168066
vt -1 -0.1166897
vt -1 -1.0205
vt -1 -0.8536703
vt 1 -1.0205
vt 1 -0.8536703
vt 1 -0.2101118
vt 1 -0.3876229
vt -1 -0.2101118
vt -1 -0.3876229
vt -1 -1.071018
vt 1 -1.071018
vt 1 -0.2776814
vt 1 -0.4625367
vt -1 -0.2776814
vt -1 -0.4625367
vt -1 -1.112025
vt 1 -1.112025
vt 1 -0.5149789
vt 1 -0.705368
vt -1 -0.5149789
vt -1 -0.705368
vt 1 -0.6763187
vt 1 -0.870482
vt -1 -0.6763187
vt -1 -0.870482
vt -1 -1.164019
vt 1 -1.164019
vt 1 -0.8582041
vt 1 -1.054275
vt -1 -0.8582041
vt -1 -1.054275
vt -1 -1.17451
vt 1 -1.17451
vt 1.700199 1
vt 1.958831 1
vt 1.700199 -1
vt 1.958831 -1
vt -1.958791 -1.092399
vt -1.961261 -0.896365
vt -1.699802 -1.0924
vt -1.691616 -0.9257704
vt 1.961259 -0.8963642
vt 1.95879 -1.092399
vt 1.691615 -0.9257704
vt 1.699801 -1.0924
vt -1.962503 -0.70222
vt -1.667137 -0.7607473
vt 1.962502 -0.7022179
vt 1.667136 -0.760746
vt -1.964415 -0.5118301
vt -1.6266 -0.5989156
vt 1.964415 -0.5118287
vt 1.6266 -0.598915
vt -1.965578 -0.3270319
vt -1.570396 -0.4418377
vt 1.965578 -0.327032
vt 1.570396 -0.4418377
vt -1.970101 -0.1496068
vt -1.499068 -0.2910265
vt 1.9701 -0.149604
vt 1.499067 -0.2910244
vt -1.975547 0.518742
vt -1.413299 -0.1479301
vt 1.975548 0.518742
vt 1.4133 -0.1479299
vt -1.982218 0.9263877
vt -1.313919 -0.01393163
vt 1.982217 1.087094
vt 1.313919 -0.01393062
vt -1.414013 0.9285675
vt -1.201882 0.1096821
vt 1.414015 1.089272
vt 1.201883 0.1096818
vt -1.268587 0.9274204
vt -1.078269 0.2217183
vt 1.268587 1.088125
vt 1.078269 0.2217183
vt -1.110941 0.926403
vt -0.94427 0.3210988
vt 1.110941 1.087108
vt 0.94427 0.3210988
vt -0.9425944 0.9277005
vt -0.8011751 0.4068666
vt 0.9425944 1.088406
vt 0.8011751 0.4068666
vt -0.7651671 0.92697
vt -0.6503624 0.4781957
vt 0.7651671 1.087675
vt 0.6503624 0.4781957
vt -0.5803698 0.9285703
vt -0.4932845 0.534399
vt 0.5803698 1.089275
vt 0.4932845 0.534399
vt -0.3899812 0.9281552
vt -0.3314542 0.5749354
vt 0.3899812 1.08886
vt 0.3314542 0.5749354
vt -0.195835 0.9279046
vt -0.1664296 0.5994146
vt 0.195835 1.08861
vt 0.1664296 0.5994146
vt 0.0001994371 0.9278207
vt 0.0001995564 0.6076005
vt -0.0001994371 1.088526
vt 0.1962339 0.9257293
vt 0.1668285 0.5994146
vt -0.1962339 1.086434
vt -0.1668285 0.5994146
vt 0.39038 0.9259799
vt 0.331853 0.5749354
vt -0.39038 1.086685
vt -0.331853 0.5749354
vt 0.5807687 0.9285703
vt 0.4936835 0.534399
vt -0.5807687 1.089275
vt -0.4936835 0.534399
vt 0.765566 0.9291456
vt 0.6507612 0.4781957
vt -0.765566 1.089851
vt -0.6507612 0.4781957
vt 0.9429933 0.9298759
vt 0.8015736 0.4068668
vt -0.9429933 1.090581
vt -0.8015736 0.4068668
vt 1.11134 0.9307494
vt 0.9446689 0.3210988
vt -1.11134 1.091455
vt -0.9446689 0.3210988
vt 1.268986 0.9316945
vt 1.078668 0.2217183
vt -1.268986 1.0924
vt -1.078668 0.2217183
vt 1.414414 0.9306574
vt 1.202281 0.1096821
vt -1.414414 1.091362
vt -1.202281 0.1096821
vt 1.982217 0.9263871
vt 1.314317 -0.01393104
vt -1.982217 1.087092
vt -1.314317 -0.01393104
vt 1.966842 0.01874089
vt 1.413698 -0.1479302
vt -1.966842 0.01874089
vt -1.413698 -0.1479302
vt 1.964022 -0.1496059
vt -1.964022 -0.1496059
vt 1.969497 -0.3270326
vt 1.570795 -0.4418376
vt -1.969497 -0.3270326
vt -1.570795 -0.4418376
vt 1.964874 -0.5118301
vt -1.964874 -0.5118301
vt 1.96518 -0.7022189
vt 1.667534 -0.760746
vt -1.96518 -0.7022189
vt -1.667534 -0.760746
vt 1.962627 -0.8963653
vt 1.692013 -0.9257705
vt -1.962627 -0.8963653
vt -1.692013 -0.9257705
vt 1.700199 -1.0924
vt -1.700199 -1.0924

vn -4.602887E-07 -1 -4.172324E-07
vn -0.9999207 -0.01259769 -5.256165E-09
vn -0.9999549 -0.009498474 -3.963071E-09
vn 0.9951847 -0.09801747 0
vn 0.9987954 -0.04906777 0
vn -0.9999662 -0.008223149 -3.430964E-09
vn 0.9807853 -0.1950902 0
vn 0.9569404 -0.2902846 0
vn -0.9998738 -0.01588768 1.964958E-10
vn 0.9238796 -0.3826833 0
vn -0.9998586 -0.01681533 -3.978489E-09
vn 0.8819215 -0.4713964 0
vn -0.9999506 -0.009942348 -3.790222E-10
vn -0.9999384 -0.01109867 -0.0003286414
vn 0.8314695 -0.5555703 0
vn -0.7133979 0.698481 0.05645985
vn -0.7142248 0.6976678 0.05605938
vn 0.7730105 -0.6343932 0
vn 0.002019588 0.9967852 0.08009426
vn 0.7071068 -0.7071068 0
vn 0.007147084 0.9967618 0.08009235
vn 0.6343931 -0.7730106 0
vn -0.0006249071 0.9967871 0.08009438
vn 0.5555701 -0.8314697 0
vn -0.001789121 0.9967857 0.08009427
vn 0.4713967 -0.8819213 0
vn -0.002263761 0.9967847 0.0800942
vn 0.3826834 -0.9238796 0
vn -0.003229164 0.9967821 0.08009398
vn 0.2902847 -0.9569404 0
vn 0.001729858 0.9967858 0.08009427
vn 0.1950906 -0.9807853 0
vn 0.0008566243 0.9967869 0.08009436
vn 0.09801705 -0.9951848 0
vn 0.005530285 0.9967721 0.08009316
vn 0.004673672 0.9967764 0.08009352
vn -0.09801709 -0.9951848 0
vn -0.007423892 0.9967598 0.08009218
vn -0.1950905 -0.9807853 0
vn -0.008332181 0.9967527 0.08009162
vn -0.2902848 -0.9569404 0
vn -0.003602903 0.9967808 0.08009388
vn -0.3826834 -0.9238796 0
vn -0.004637508 0.9967766 0.08009353
vn -0.4713966 -0.8819214 0
vn -0.005574002 0.9967718 0.08009315
vn -0.5555702 -0.8314697 0
vn -0.634393 -0.7730107 0
vn -0.7071068 -0.7071068 0
vn 0.7148187 0.6970631 0.0560108
vn 0.7152458 0.696589 0.05645584
vn -0.7730108 -0.6343929 0
vn 0.9998686 -0.01620623 -0.0002890677
vn 0.9998581 -0.01684301 0
vn -0.8314696 -0.5555703 0
vn 0.9999751 0.007049249 0
vn -0.8819212 -0.471397 0
vn 0.9999958 0.00291992 0
vn -0.9238795 -0.3826835 0
vn 0.9999315 -0.01170249 0
vn -0.9569404 -0.2902846 0
vn 0.9999833 -0.005773033 0
vn -0.9807854 -0.1950898 0
vn -0.9891766 -0.1467296 0
vn 0.9998126 -0.0193584 0
vn -0.9987954 -0.04906846 0
vn 1.841152E-06 2.31961E-08 1
vn 4.427066E-07 5.577524E-09 -1

usemtl Wood_Block_Yellow
f 3/3/1 4/4/1 2/2/1 1/1/1
f 1/7/2 6/8/3 5/6/3 3/5/2
f 8/11/4 2/12/5 4/10/5 7/9/4
f 6/15/3 10/16/6 9/14/6 5/13/3
f 12/19/7 8/20/4 7/18/4 11/17/7
f 10/23/6 14/24/6 13/22/6 9/21/6
f 16/27/8 12/28/7 11/26/7 15/25/8
f 14/31/6 18/32/9 17/30/9 13/29/6
f 20/35/10 16/36/8 15/34/8 19/33/10
f 18/39/9 22/40/11 21/38/11 17/37/9
f 24/43/12 20/44/10 19/42/10 23/41/12
f 22/47/11 26/48/14 25/46/13 21/45/11
f 28/51/15 24/52/12 23/50/12 27/49/15
f 26/55/14 30/56/17 29/54/16 25/53/13
f 32/59/18 28/60/15 27/58/15 31/57/18
f 30/63/17 34/64/19 33/62/19 29/61/16
f 36/67/20 32/68/18 31/66/18 35/65/20
f 34/71/19 38/72/21 37/70/21 33/69/19
f 40/75/22 36/76/20 35/74/20 39/73/22
f 38/79/21 42/80/23 41/78/23 37/77/21
f 44/83/24 40/84/22 39/82/22 43/81/24
f 42/87/23 46/88/25 45/86/25 41/85/23
f 48/91/26 44/92/24 43/90/24 47/89/26
f 46/95/25 50/96/27 49/94/27 45/93/25
f 52/99/28 48/100/26 47/98/26 51/97/28
f 50/103/27 54/104/29 53/102/29 49/101/27
f 56/107/30 52/108/28 51/106/28 55/105/30
f 54/111/29 58/112/31 57/110/31 53/109/29
f 60/115/32 56/116/30 55/114/30 59/113/32
f 58/119/31 62/120/33 61/118/33 57/117/31
f 64/123/34 60/124/32 59/122/32 63/121/34
f 62/127/33 66/128/35 65/126/35 61/125/33
f 68/131/1 64/132/34 63/130/34 67/129/1
f 66/135/35 70/136/36 69/134/36 65/133/35
f 72/139/37 68/140/1 67/138/1 71/137/37
f 70/143/36 74/144/38 73/142/38 69/141/36
f 76/147/39 72/148/37 71/146/37 75/145/39
f 74/151/38 78/152/40 77/150/40 73/149/38
f 80/155/41 76/156/39 75/154/39 79/153/41
f 78/159/40 82/160/42 81/158/42 77/157/40
f 84/163/43 80/164/41 79/162/41 83/161/43
f 82/167/42 86/168/44 85/166/44 81/165/42
f 88/171/45 84/172/43 83/170/43 87/169/45
f 86/175/44 90/176/46 89/174/46 85/173/44
f 92/179/47 88/180/45 87/178/45 91/177/47
f 90/183/46 94/184/33 93/182/33 89/181/46
f 96/187/48 92/188/47 91/186/47 95/185/48
f 94/191/33 98/192/21 97/190/21 93/189/33
f 100/195/49 96/196/48 95/194/48 99/193/49
f 98/199/21 102/200/51 101/198/50 97/197/21
f 104/66/52 100/202/49 99/201/49 103/68/52
f 102/205/51 106/206/54 105/204/53 101/203/50
f 108/58/55 104/208/52 103/207/52 107/60/55
f 106/211/54 110/212/56 109/210/56 105/209/53
f 112/215/57 108/216/55 107/214/55 111/213/57
f 110/219/56 114/220/58 113/218/58 109/217/56
f 116/222/59 112/41/57 111/43/57 115/221/59
f 114/225/58 118/226/60 117/224/60 113/223/58
f 120/228/61 116/33/59 115/35/59 119/227/61
f 118/231/60 122/232/62 121/230/62 117/229/60
f 124/26/63 120/25/61 119/27/61 123/28/63
f 122/235/62 126/236/53 125/234/53 121/233/62
f 128/238/64 124/17/63 123/19/63 127/237/64
f 126/241/53 130/242/65 129/240/65 125/239/53
f 132/244/66 128/9/66 127/11/66 131/243/66
f 131/247/1 129/248/1 130/246/1 132/245/1
f 2/251/67 8/252/67 6/250/67 1/249/67
f 7/255/68 4/256/68 3/254/68 5/253/68
f 8/252/67 12/258/67 10/257/67 6/250/67
f 11/260/68 7/255/68 5/253/68 9/259/68
f 12/258/67 16/262/67 14/261/67 10/257/67
f 15/264/68 11/260/68 9/259/68 13/263/68
f 16/262/67 20/266/67 18/265/67 14/261/67
f 19/268/68 15/264/68 13/263/68 17/267/68
f 20/266/67 24/270/67 22/269/67 18/265/67
f 23/272/68 19/268/68 17/267/68 21/271/68
f 24/270/67 28/274/67 26/273/67 22/269/67
f 27/276/68 23/272/68 21/271/68 25/275/68
f 28/274/67 32/278/67 30/277/67 26/273/67
f 31/280/68 27/276/68 25/275/68 29/279/68
f 32/278/67 36/282/67 34/281/67 30/277/67
f 35/284/68 31/280/68 29/279/68 33/283/68
f 36/282/67 40/286/67 38/285/67 34/281/67
f 39/288/68 35/284/68 33/283/68 37/287/68
f 40/286/67 44/290/67 42/289/67 38/285/67
f 43/292/68 39/288/68 37/287/68 41/291/68
f 44/290/67 48/294/67 46/293/67 42/289/67
f 47/296/68 43/292/68 41/291/68 45/295/68
f 48/294/67 52/298/67 50/297/67 46/293/67
f 51/300/68 47/296/68 45/295/68 49/299/68
f 52/298/67 56/302/67 54/301/67 50/297/67
f 55/304/68 51/300/68 49/299/68 53/303/68
f 56/302/67 60/306/67 58/305/67 54/301/67
f 59/308/68 55/304/68 53/303/68 57/307/68
f 60/306/67 64/310/67 62/309/67 58/305/67
f 63/312/68 59/308/68 57/307/68 61/311/68
f 64/310/67 68/314/67 66/313/67 62/309/67
f 67/314/68 63/312/68 61/311/68 65/315/68
f 68/314/67 72/317/67 70/316/67 66/313/67
f 71/319/68 67/314/68 65/315/68 69/318/68
f 72/317/67 76/321/67 74/320/67 70/316/67
f 75/323/68 71/319/68 69/318/68 73/322/68
f 76/321/67 80/325/67 78/324/67 74/320/67
f 79/327/68 75/323/68 73/322/68 77/326/68
f 80/325/67 84/329/67 82/328/67 78/324/67
f 83/331/68 79/327/68 77/326/68 81/330/68
f 84/329/67 88/333/67 86/332/67 82/328/67
f 87/335/68 83/331/68 81/330/68 85/334/68
f 88/333/67 92/337/67 90/336/67 86/332/67
f 91/339/68 87/335/68 85/334/68 89/338/68
f 92/337/67 96/341/67 94/340/67 90/336/67
f 95/343/68 91/339/68 89/338/68 93/342/68
f 96/341/67 100/345/67 98/344/67 94/340/67
f 99/347/68 95/343/68 93/342/68 97/346/68
f 100/345/67 104/349/67 102/348/67 98/344/67
f 103/351/68 99/347/68 97/346/68 101/350/68
f 104/349/67 108/353/67 106/352/67 102/348/67
f 107/355/68 103/351/68 101/350/68 105/354/68
f 108/353/67 112/272/67 110/356/67 106/352/67
f 111/270/68 107/355/68 105/354/68 109/357/68
f 112/272/67 116/359/67 114/358/67 110/356/67
f 115/361/68 111/270/68 109/357/68 113/360/68
f 116/359/67 120/264/67 118/362/67 114/358/67
f 119/262/68 115/361/68 113/360/68 117/363/68
f 120/264/67 124/365/67 122/364/67 118/362/67
f 123/367/68 119/262/68 117/363/68 121/366/68
f 124/365/67 128/369/67 126/368/67 122/364/67
f 127/371/68 123/367/68 121/366/68 125/370/68
f 128/369/67 132/372/67 130/254/67 126/368/67
f 131/373/68 127/371/68 125/370/68 129/249/68

