# ProBuilder 5.0.6
# https://unity3d.com/unity/features/worldbuilding/probuilder
# 2022-07-16 10:29:48 PM

mtllib ./Prism.mtl
o Prism

g Prism
v 2 -1 -1
v -2 -1 -1
v 2 1 -1
v -2 -1 1
v 2 1 1
v 2 -1 1

vt -2 -1
vt 2 -1
vt -2 1
vt 2.236068 -1
vt 2.236068 1
vt -2.236068 -1
vt -2.236068 1
vt 2 1
vt -1 -1
vt 1 -1
vt -1 1
vt 1 1

vn 0 0 -1
vn -0.4472136 0.8944272 0
vn 0 0 1
vn 1 0 0
vn 0 -1 0

usemtl Wood_Block_Blue
f 1/1/1 2/2/1 3/3/1
f 4/1/3 6/2/3 5/8/3
f 3/6/2 2/4/2 4/5/2
f 4/5/2 5/7/2 3/6/2
f 5/11/4 6/9/4 1/10/4
f 1/10/4 3/12/4 5/11/4
f 4/3/5 2/1/5 1/2/5
f 1/2/5 6/8/5 4/3/5

