# ProBuilder 5.0.6
# https://unity3d.com/unity/features/worldbuilding/probuilder
# 2022-07-16 10:31:10 PM

mtllib ./Triangle.mtl
o Triangle

g Triangle
v 1.955813 0.1929617 -0.6179552
v -0.04418659 0.1929617 -0.6179552
v 0.9558134 1.192962 -0.6179552
v -0.04418659 0.1929617 1.382045
v 0.9558134 1.192962 1.382045
v 1.955813 0.1929617 1.382045

vt -1.955813 0.1929617
vt 0.04418659 0.1929617
vt -0.9558134 1.192962
vt -0.1051999 -0.6179552
vt -0.1051999 1.382045
vt -1.519413 -0.6179552
vt -1.519413 1.382045
vt -0.04418659 0.1929617
vt 1.955813 0.1929617
vt 0.9558134 1.192962
vt -1.246524 1.382045
vt -1.246524 -0.6179552
vt 0.1676892 1.382045
vt 0.1676892 -0.6179552
vt 1.955813 -0.6179552
vt -0.04418659 -0.6179552
vt 1.955813 1.382045
vt -0.04418659 1.382045

vn 0 0 -1
vn -0.7071068 0.7071068 0
vn 0 0 1
vn 0.7071068 0.7071068 0
vn 0 -1 0

usemtl Wood_Block_Yellow
f 1/1/1 2/2/1 3/3/1
f 4/8/3 6/9/3 5/10/3
f 3/6/2 2/4/2 4/5/2
f 4/5/2 5/7/2 3/6/2
f 5/13/4 6/11/4 1/12/4
f 1/12/4 3/14/4 5/13/4
f 4/18/5 2/16/5 1/15/5
f 1/15/5 6/17/5 4/18/5

